<?xml version="1.0" standalone="no"?>
<!DOCTYPE svg PUBLIC "-//W3C//DTD SVG 20010904//EN"
 "http://www.w3.org/TR/2001/REC-SVG-20010904/DTD/svg10.dtd">
<svg version="1.0" xmlns="http://www.w3.org/2000/svg"
 width="225.000000pt" height="225.000000pt" viewBox="0 0 225.000000 225.000000"
 preserveAspectRatio="xMidYMid meet">
<metadata>
Created by potrace 1.11, written by Peter Selinger 2001-2013
</metadata>
<g transform="translate(0.000000,225.000000) scale(0.100000,-0.100000)"
fill="#000000" stroke="none">
<path d="M940 2235 c-411 -70 -756 -367 -885 -762 -213 -652 212 -1348 890
-1458 683 -111 1305 418 1305 1110 0 691 -630 1226 -1310 1110z m123 -482 c-7
-2 -19 -2 -25 0 -7 3 -2 5 12 5 14 0 19 -2 13 -5z m-106 -19 c-3 -3 -12 -4
-19 -1 -8 3 -5 6 6 6 11 1 17 -2 13 -5z m-257 -137 c0 -2 -12 -14 -27 -28
l-28 -24 24 28 c23 25 31 32 31 24z m430 -87 c0 -73 3 -90 15 -90 9 0 15 9 15
23 0 29 18 47 45 47 27 0 45 -18 45 -46 0 -15 8 -25 23 -30 64 -20 116 -92
117 -162 0 -32 -18 -81 -41 -113 -10 -13 -7 -22 10 -46 63 -85 16 -226 -86
-258 -15 -4 -23 -14 -23 -29 0 -28 -18 -46 -45 -46 -27 0 -45 18 -45 47 0 14
-6 23 -15 23 -12 0 -15 -17 -15 -90 l0 -90 -44 0 c-136 0 -299 104 -378 240
-78 135 -78 335 0 470 79 136 237 238 375 239 l47 1 0 -90z m-613 -212 c-3 -8
-6 -5 -6 6 -1 11 2 17 5 13 3 -3 4 -12 1 -19z m-20 -110 c-3 -7 -5 -2 -5 12 0
14 2 19 5 13 2 -7 2 -19 0 -25z m0 -150 c-3 -7 -5 -2 -5 12 0 14 2 19 5 13 2
-7 2 -19 0 -25z m20 -100 c-3 -8 -6 -5 -6 6 -1 11 2 17 5 13 3 -3 4 -12 1 -19z
m163 -263 c13 -14 21 -25 18 -25 -2 0 -15 11 -28 25 -13 14 -21 25 -18 25 2 0
15 -11 28 -25z m277 -161 c-3 -3 -12 -4 -19 -1 -8 3 -5 6 6 6 11 1 17 -2 13
-5z m116 -21 c-7 -2 -21 -2 -30 0 -10 3 -4 5 12 5 17 0 24 -2 18 -5z"/>
<path d="M1130 1250 l0 -80 50 0 c27 0 60 5 74 11 50 23 57 103 13 134 -13 9
-44 15 -79 15 l-58 0 0 -80z"/>
<path d="M1130 1000 l0 -80 58 0 c35 0 66 6 79 15 44 31 37 111 -13 134 -14 6
-47 11 -74 11 l-50 0 0 -80z"/>
</g>
</svg>
